#!OML:ASF H:\Terrain\Patient Classification 1\Walking\liu\liu.ASF
:FULLY-SPECIFIED
:DEGREES
178
root 8.114060 16.721201 -12.254100 7.877180 6.631190 -1.805560
lowerback -5.027154 0.507989 0.127377
upperback -0.389470 0.587375 3.806594
thorax 2.384030 0.280379 3.890513
lowerneck -22.791561 -9.049216 -16.561161
upperneck 16.076830 -10.939225 16.993132
head 10.588172 -4.361720 7.049405
rclavicle 0.000000 0.000000
rhumerus -42.005371 12.640870 -86.879326
rradius 45.496552
rwrist -23.283260
rhand -33.343861 -27.960461
rfingers 7.837522
rthumb -3.981318 -60.904362
lclavicle 0.000000 0.000000
lhumerus -49.507702 -14.136650 106.047264
lradius 35.874409
lwrist 19.248020
lhand -13.901690 -28.195311
lfingers 7.837522
lthumb 14.786420 4.305620
rfemur -22.505562 3.157396 29.021191
rtibia 30.413240
rfoot -19.163212 2.112561
rtoes -18.693291
lfemur -28.895130 9.016502 -19.955980
ltibia 68.832283
lfoot -10.916302 11.562651
ltoes -8.127625
179
root 8.109530 16.713100 -12.135900 7.854280 6.455840 -2.058760
lowerback -5.025438 0.443211 0.337044
upperback -0.481336 0.492533 3.832686
thorax 2.295623 0.236128 3.792118
lowerneck -22.195911 -8.626618 -16.246670
upperneck 15.873440 -10.500381 16.990051
head 10.321366 -4.168065 7.072604
rclavicle -0.000000 -0.000000
rhumerus -41.372868 12.605230 -86.961601
rradius 45.639553
rwrist -23.088892
rhand -33.382030 -27.862452
rfingers 7.837522
rthumb -4.018113 -60.805801
lclavicle -0.000000 -0.000000
lhumerus -49.870041 -12.928520 105.391769
lradius 36.052280
lwrist 18.788879
lhand -13.925780 -27.901279
lfingers 7.837522
lthumb 14.763320 4.601168
rfemur -22.072710 3.459104 29.411690
rtibia 30.514330
rfoot -19.444151 2.103255
rtoes -17.732990
lfemur -30.313032 8.985020 -19.943880
ltibia 68.619431
lfoot -12.043350 11.726550
ltoes -7.708107
180
root 8.104840 16.699100 -12.015400 7.788990 6.365120 -2.196510
lowerback -4.985871 0.093828 0.264558
upperback -0.619493 0.035982 3.774870
thorax 2.157430 0.009337 3.743223
lowerneck -21.732481 -7.833672 -14.874970
upperneck 15.995541 -9.732757 16.353260
head 10.048655 -3.811764 6.741482
rclavicle 0.000000 0.000000
rhumerus -40.960041 13.066681 -87.539879
rradius 45.934021
rwrist -22.851290
rhand -33.447590 -27.363932
rfingers 7.837522
rthumb -4.081429 -60.306072
lclavicle 0.000000 0.000000
lhumerus -50.341724 -11.445610 104.316628
lradius 36.248524
lwrist 19.050571
lhand -13.493151 -27.303761
lfingers 7.837522
lthumb 15.180111 5.170715
rfemur -21.590910 3.817924 29.702751
rtibia 30.599140
rfoot -19.971601 1.740255
rtoes -17.240740
lfemur -31.630831 8.812496 -20.035070
ltibia 68.253349
lfoot -13.129380 11.715220
ltoes -3.780227
181
root 8.106370 16.691700 -11.888300 7.702270 6.156650 -2.157910
lowerback -5.188128 0.893916 0.529098
upperback -0.299153 1.075342 3.785419
thorax 2.544784 0.526371 3.676750
lowerneck -21.733690 -8.771081 -16.642120
upperneck 15.724501 -10.663477 17.128321
head 10.244916 -4.274303 7.164146
rclavicle -0.000000 -0.000000
rhumerus -40.325783 11.132880 -85.947838
rradius 46.434521
rwrist -22.930161
rhand -33.374660 -26.696341
rfingers 7.837522
rthumb -4.011029 -59.639690
lclavicle -0.000000 -0.000000
lhumerus -49.666981 -12.620081 105.214119
lradius 36.100460
lwrist 19.201490
lhand -14.618561 -27.017981
lfingers 7.837522
lthumb 14.095510 5.527368
rfemur -20.991631 4.057680 29.743450
rtibia 30.722012
rfoot -20.378050 1.652123
rtoes -16.224451
lfemur -32.690571 8.622075 -20.383001
ltibia 67.661110
lfoot -13.949759 12.041591
ltoes -4.408536
